<svg xmlns="http://www.w3.org/2000/svg" viewBox="0 0 520 318" width="520" height="318" role="img" aria-label="Repositories by shelf: android 1; backend 8; cpp 7; unity 1; ml 1; web 3.">
  <title>the tour</title>
  <style>
    .mono { font-family: ui-monospace, SFMono-Regular, Menlo, Consolas, "DejaVu Sans Mono", monospace; font-size: 17px; }
    .sm { font-size: 13px; }
    .key { fill: #E0434E; }
    .val { fill: #E8E6E3; }
    .note { fill: #8E8E96; font-size: 12.5px; }
  </style>
  <rect fill="#0B0B0D" x="0" y="0" width="520" height="318" rx="12"/>
  <rect fill="none" stroke="#3A0D12" x="8.5" y="8.5" width="503" height="301" rx="10"/>
  <text class="mono" fill="#4FE07A" x="28" y="42">$</text>
  <text class="mono" fill="#E8E6E3" x="46" y="42">tree -L 1 ~/repos</text>
  <line x1="28" y1="58" x2="492" y2="58" stroke="#3A0D12"/>
  <text class="mono" x="28" y="102" fill="#E0434E">android/</text>
  <rect x="122" y="88" width="10" height="17" rx="2" fill="#C1121F"/>
  <text class="mono sm" x="140" y="101" fill="#8E8E96">1</text>
  <text class="mono sm" x="238" y="101" fill="#E8E6E3">Compose, one casino app</text>
  <text class="mono" x="28" y="136" fill="#E0434E">backend/</text>
  <rect x="122" y="122" width="84" height="17" rx="2" fill="#9A2028"/>
  <text class="mono sm" x="214" y="135" fill="#8E8E96">8</text>
  <text class="mono sm" x="238" y="135" fill="#E8E6E3">Spring, Ktor, Express, PHP</text>
  <text class="mono" x="28" y="170" fill="#E0434E">cpp/</text>
  <rect x="122" y="156" width="74" height="17" rx="2" fill="#7C2A30"/>
  <text class="mono sm" x="204" y="169" fill="#8E8E96">7</text>
  <text class="mono sm" x="238" y="169" fill="#E8E6E3">patterns, SIMD, a cinema</text>
  <text class="mono" x="28" y="204" fill="#E0434E">unity/</text>
  <rect x="122" y="190" width="10" height="17" rx="2" fill="#653036"/>
  <text class="mono sm" x="140" y="203" fill="#8E8E96">1</text>
  <text class="mono sm" x="238" y="203" fill="#E8E6E3">a reverse tower defence</text>
  <text class="mono" x="28" y="238" fill="#E0434E">ml/</text>
  <rect x="122" y="224" width="10" height="17" rx="2" fill="#55343A"/>
  <text class="mono sm" x="140" y="237" fill="#8E8E96">1</text>
  <text class="mono sm" x="238" y="237" fill="#E8E6E3">a Transformer by hand</text>
  <text class="mono" x="28" y="272" fill="#E0434E">web/</text>
  <rect x="122" y="258" width="32" height="17" rx="2" fill="#4A363C"/>
  <text class="mono sm" x="162" y="271" fill="#8E8E96">3</text>
  <text class="mono sm" x="238" y="271" fill="#E8E6E3">where all of this started</text>
  <text class="mono note" x="28" y="302">university handed me the deadlines, I picked the stacks</text>
</svg>
